<svg xmlns="http://www.w3.org/2000/svg" width="206.33" height="259.712" viewBox="0 0 206.33 259.712"><path fill="#BDB99B" d="M113.373 154.562c7.861-11.549 21.24-4.105 24.604 5.408.51 1.465 1.566 8.725 1.328 10.627-2.199 16.631-27.786 28.574-44.924 17.189-23.219-15.432-22.387-44.301-4.749-62.668 12.177-12.661 30.273-19.622 41.684-30.669 13.431-12.993 8.222-25.596 6.079-37.804-1.91-10.816 1.396-22.283-1.808-32.938-22.516 12.927-7.63 28.706-15.938 45.199-9.955 19.732-30.887 22.566-45.494 37.319-13.236 13.366-21.063 31.644-22.211 44.425-1.303 14.484 14.076 46.775 33.619 59.062 19.268 12.143 58.328 10.02 73.302-18.416 13.059-24.846-15.471-54.006 21.932-77.582 9.248 10.568 24.244 32.048 16.998 43.394-4.592 7.188-13.291 5.375-21.184 9.586-4.009 19.4 18.547 13.355 29.721 21.756-2.113 11.182-8.908 26.666-20.119 36.455-7.342.168-14.371-11.346-18.434-11.59-4.363-.041-8.016 5.717-12.047 8.461 1.051 7.836 9.443 14.752 9.779 22.691-10.905 5.652-25.106 14.164-35.129 15.186-2.213.221-3.89-.281-3.89-.281-11.858-12.111-.825-36.543-22.319-24.207-6.081 7.975-8.539 22.695-12.766 23.607-5.502 1.188-36.863-11.918-37.867-16-1.352-5.5 7.077-14.01 13.691-25.359-1.414-3.674-8.409-8.143-11.972-9.311-8.111 4.963-21.491 17.605-24.107 16.91-2.619-.693-22.641-32.479-20.597-35.232 2.043-2.754 17.519-7.971 26.197-12.543.811-5.736-2.542-10.223-3.986-19.545-10.102-.689-28.312 4.279-30.929 1.789-2.616-2.492-3.346-35.291 4.045-37.778 5.028-1.694 20.962 4.812 31.151 2.268 2.66-3.422 2.296-6.452 4.929-9.868-5.389-5.503-16.645-11.705-24.574-17.75 1.38-13.113 20.268-29.401 22.043-28.938 1.777.47 13.653 13.585 20.966 21.24 5.234.767 9.927-2.895 14.431-7.966-4.199-8.223-16.838-17.321-18.749-25.828 6.681-11.055 19.716-18.021 30.14-18.804 8.185 8.745 9.536 18.347 15.756 27.342-.069-.098 3.371-4.938 3.64-5.387 1.938-3.244 2.611-6.32 2.741-10.162.2-5.832-.624-11.615.037-17.439.429-3.76 1.65-6.589 3.557-9.836 2.779-4.735 6.198-8.07 10.141-11.814 3.668-3.484 7.723-7.316 12.812-8.514 2.339-.55 5.057-.173 7.148 1.063 8.735 5.169 6.873 26.236 8.635 38.247 2.877 19.631 13.275 43.336 1.707 63.052-7.67 13.081-20.189 17.431-28.1 22.043-16.365 9.52-41.75 35.348-19.271 49.454 9.137 5.744 15.967-2.666 16.521-3.596 3.807-6.516.002-9.375-8.17-15.948z"/></svg>