<svg xmlns="http://www.w3.org/2000/svg" width="379.883" height="162.731" viewBox="0 0 379.883 162.731"><g fill="#BDB99B"><path d="M12.282 126.268l-.583-2.607m91.762-108.388c-1.091-1.019-3.995-2.304-5.209-2.345-15.715-.634-10.012 23.939 4.026 16.278 7.505-5.166 2.576-12.623 1.183-13.933zM95.782 26.36c-3.105-3.44-2.146-4.593-1.949-6.985 1.18-3.744 6.404-1.029 6.404-1.029 3.525 4.06-1.836 9.666-4.455 8.014z"/><path d="M347.76 56.347c-.648.754-.291 2.162-1.824 2.357-5.035-1.106-22.809-1.461-22.611-8.613.822-.973 1.492-2.03 2.926-2.603 6.922.354 16.422.744 23.926-3.016 2.867-4.345 3.107-10.123 3.826-16.085.045-.262.965-7.25 5.287-7.816.967 3.325 3.387 4.375 5.006 6.69 8.844.18 9.67-6.908 7.666-14.609-1.344-.888-2.039-2.802-2.635-4.87-2.889-1.674-5.168-4.286-8.281-5.569-9.236-.73-13.912 4.896-17.354 9.725.107 1.879-.582 3.254-1.324 4.594-6.873-4.472-17.959 1.428-15.695 10.158.414 1.051 2.217 2.523 1.299 4.007-19.389 1.093-209.032 2.579-216.875 1.223-6.849 1.428-15.959-.671-20.469 4.576-4.668 17.106 2.858 45.513-18.945 51.502l-1.369-.867c-1.005-1.502-2.146-5.544.239-5.915 1.846.271 4.034 3.169 4.034 3.169l2.262-3.015c2.532-3.141-6.503-7.336-8.899-6.607-7.103 2.154-4.919 12.522-.886 16.99 8.304 4.054 15.146-2.508 18.087-6.378 2.127-2.797 2.031-2.76 3.397-5.833.437-1.033 4.417-14.7 4.644-15.881.889-4.542-.116-10.831 1.184-13.932-.415-4.519.14-8.421 2.131-11.423 11.328-1.09 22.38-1.747 32.296-.573.478-.121 164.768-2.452 178.129-1.559-2.388 1.889-3.215 4.78-5.534 6.712-4.238.471-172.746.755-179.867.771-1.948.003-14.273-1.108-19.1 1.919-1.054 3.598-3.817 20.844-4.886 25.307-.706 2.967-2.985 6.81-4.037 9.885-.345.985-5.167 16.518-20.901 18.342-22.45-4.351-13.258-24.373-13.258-24.373 3.709-5.349 9.458-4.866 14.791-7.219 2.048-.889 3.43-3.622 4.917-4.223 1.186-15.316 1.953-36.832.507-53.612-.273-3.152-1.204-4.52-3.104-5.166-2.286 1.88-5.093 8.887-5.238 9.768-.673 3.973-1.549 8.438-1.683 11.695-.285 6.711-.572 11.148-.433 17.29.097 4.693.869 9.741 2.209 11.614.489.722 2.334-.672 2.771.152 1.856 2.381.398 4.774-.541 6.368-2.089 1.762-6.467 2.069-9.875 2.997-8.833 5.128-13.621 12.847-9.8 26.018.792 10.463 16.579 12.829 18.914 12.949 29.734 1.529 32.444-51.13 34.069-53.709 2.299-3.621 185.695-3.904 194.723-2.516-.251 3.268 1.141 3.775.66 6.485 1.476 2.541 3.018 4.977 4.437 7.604 9.955 6.936 23.663 7.976 34.334 13.8.664 1.37 1.781 2.384.365 3.428-5.148.587-8.156-2.221-12.691-2.62-.414.479-.498 1.169-1.24 1.438 2.098 6.27 8.998 4.934 13.992 6.643 3.295-1.628 6.156-3.531 5.736-7.53-2.857-9.265-25.545-14.411-29.788-14.43-2.431-2.548-5.981-3.332-8.648-5.486-2.462-4.431-2.53-9.325-1.423-13.351 3.943-4.913 10.455-8.316 19.171-8.585 3.734 1.083 10.244.521 12.645.683 0 0 2.516.774 3.48-1.938 5.213-9.004 3.391-27.932 19.602-25.876 2.955 3.564 6.479 6.228 7.254 13.222-.754 1.685-2.916 2.66-4.762 1.453-1.15-2.882-2.406-5.575-4.637-6.771-15.113.79-4.482 22.998-16.869 27.595-8.148-.124-25.434-2.403-25.37 8.796-1.764 5.18 18.569 10.812 27.672 10.219-.002 1.323.75 3.168 1.354 3.28 2.621 1.543 32-.386 33.033-6.671-8.52-4.189-20.779-2.461-32.123-2.184zm-9.414-26.406l-1.871.418c-8.293.217-6.26-13.563 2.383-10.304 1.896 3.026 2.927 7.911-.512 9.886z"/><path d="M323.688 20.323c-3.258 1.724-5.946-1.646-7.851-3.719-7.045 2.021 2.831 6.388 5.707 8.541-2.59 5.711-12.312-2.087-13.07-5.203 1.534-4.145 3.599-8.595 8.84-7.179 2.049 2.651 5.26 3.449 6.374 7.56zm21.269-18.424c.254 3.14-.84 5.423-1.312 8.102-.445.738-1.475.194-2.307.129.143-2.025.832-3.727.607-5.998-1.348-1.437-2.67.226-4.711-.122-1.932 1.547 2.053 6.06-.262 7.351-3.094-1.063-3.344-7.302-3.094-10.109 4.157-2.238 8.464-1.134 11.079.647zm-14.414 10.643c-1.359-2.03-2.43-4.557-3.518-7.021l-3.357.75c-1.545 3.128 2.961 6.062 2.746 8.758.189.248-.668.535-.668.535-3.447-1.251-6.572-5.18-6.575-10.249 3.264-1.833 3.932-4.873 9.795-3.351.984 3.602 4.902 6.355 3.814 10.078a672 672 0 0 1-2.237.5zM12.282 130.268c4.986 1.146 9.745-2.58 14.09-5.099 7.478-4.334 14.293-10.572 20.243-14.298-.449-1.476-2.402-3.226-1.544-5.112 3.413-2.698 5.467 1.037 7.247 2.678 2.024 1.867 11.247 7.6 14.309 8.119-.247 2.955-.527 5.621-4.201 5.625-2.149 6.815-2.772 34.561.748 40.063.722-.296 1.177-.19 1.284.487 5.492-2.716 6.313-9.549 7.836-17.37.582-2.985 4.177-18.038 3.36-19.893-1.05-2.368-4.823-1.882-5.841-3.38.457-1.41.776-2.91.489-4.795 8.225.468 19.028-.713 23.93-6.523 1.382.523 2.309 1.744 3.64 2.31 1.214 1.839-1.591 3.464-1.058 5.71.312 1.328 20.584 18.229 25.942 19.974 1.415.474 2.675 1.455 4.059.654 1.524-3.092-1.453-4.569-2.21-8.087-6.277-6.718-10.724-16.3-17.474-22.27-1.919-.137-4.869 1.505-5.866 1.697-1.195-.953-2.374-1.967-3.436-3.127 3.271-5.061 7.498-9.902 9.738-15.848 2.267-6.025 4.039-13.068 5.384-19.557.671-3.184.409-7.348 3.833-9.068 1.307-.677 10.997-2.041 12.031-.339 2.376 3.842-2.962 3.845-5.237 6.244 1.416 13.723.329 29.078 5.756 43.243 3.137-1.534 3.53-5.965 4.133-9.522 1.178-7.028 4.901-30.23 3.875-33.288-.931-2.767-5.739-3.253-4.47-6.022.787-1.736 1.121-1.307 2.807-1.416 2.184-.145 7.929.474 10.258.443 4.999-.062 9.465-1.372 13.014.602 1.833 4.467-4.418 4.185-5.819 7.161-.935 2.009 2.266 34.55 6.471 41.12 4.914-4.965 7.581-34.548 7.879-41.592-1.992-3.258-6.279-2.538-4.805-7.522 3.413-.837 5.556.305 9.174-.875 5.564 1.803 14.326-1.45 19.109 1.585 1.308 3.783-1.894 2.238-3.811 3.976-3.301 2.999-1.389 14.545-.54 21.999.987 8.675 2.67 16.999 4.702 22.761 3.613-2.398 8.448-39.845 6.546-44.031-.647-1.432-3.901-2.414-4.055-4.164-.284-3.269 12.707-2.039 15.957-2.007 6.661.058 11.714.178 16.989.886 2.255 4.166-3.348 3.321-4.951 5.792-1.314 2.034 1.879 19.243 2.217 22.156.79 6.725.646 16.262 4.874 20.001 3.042-.827 2.028-4.231 3.749-5.91.008-12.674 3.593-24.376.941-37.706-.77-2.505-2.807-.579-2.486-4.129 8.025-1.231 17.873-1.021 25.711-.289 2.535 5.218-3.129 3.837-5.07 6.993-1.482 2.415 1.64 34.673 5.589 42.492 2.748-.481 2.844-3.981 3.214-6.579 1.031-6.967 5.182-32.838 3.679-35.966-.843-1.775-2.758-1.496-3.722-2.678.71-.948-1.259-3.571.287-3.976 2.303-1.41 8.382-.165 11.744.109 4.908-.859 9.287-.902 13.515-.686 2.777 5.506-3.354 4.617-4.916 7.748-.554 1.122 2.683 25.637 2.57 34.184 1.278.325.901 4.424 3.187 5.535 4.599-3.779 7.937-36.547 6.355-39.69-.868-1.754-2.585-.984-3.724-2.693-.052-1.624-.155-3.281.12-4.711 1.871-1.475 5.608.798 7.605-.913 1.669-.447.411-4.405-.415-5.38-9.645.833-177.139.072-184.094 2.891-5.757 14.956-7.233 32.642-17.304 44.873-3.243 2.26-5.3 5.426-8.594 6.996-6.726 3.243-20.309 2.16-25.495-.547-3.888-2.018-8.353-6.627-11.181-11.556-4.128-7.153-4.644-15.383-1.931-22.607 2.382-5.844 12.364-9.889 11.795-17.094-.268-3.523-3.393-4.863-1.914-8.556-6.273-8.711-13.663-15.685-21.929-21.257-2.691-1.793-4.836-4.468-8.483-4.752-2.117 2.377.386 5.521 1.748 7.818 1.53 2.589 17.862 20.489 18.22 22.09 2.884.59 4.498 3.486 7.065 1.929 2.391 4.911-3.14 7.575-5.438 10.602-2.483 3.26-4.133 6.664-5.978 9.917-3.59-.491-4.284-2.597-5.388-6.604C26.53 67.07 13.688 66.178 0 66.619c.476 6.989 31.033 17.663 33.512 17.109 2.297-.5 2.348-2.208 3.964-3.223 1.993-1.264 2.24-.828 4.928-.715-1.328 5.904.265 14.488 3.454 20.704-2.427 3.385-4.797 2.294-7.683.561-8.095 4.575-15.106 12.062-21.105 19.159-2.152 2.55-4.145 5.21-5.37 7.446M278.906 10.418c-2.279.185-3.343.749-3.343.749-4.082 2.83-6.34 6.831-3.957 13.765 5.384 5.518 17.137 2.282 16.695-5.682-.293-5.169-3.583-9.312-9.395-8.832zm5.672 9.666c-1.315 4.027-6.718 4.416-9.376 1.708-.53-4.165 1.265-6.856 6.104-7.611 1.504 1.33 2.883 2.836 3.272 5.903zm-46.591-7.55c-6.036-2.98-14.673-2.966-17.577 3.542.646 10.075 6.854 13.892 14.155 10.89 6.035-2.479 6.335-7.989 3.422-14.432zm-11.904 9.696c-1.324-4.465.609-6.86 5.37-7.448 7.627 3.174 1.246 12.75-5.37 7.448zm-32.703-8.304c-3.854-1.937-9.435-3.351-15.173.253-3.578 6.208-.178 11.642.876 12.7 2.918 2.872 9.021 1.627 14.352-.474 1.02-3.084 2.096-8.04-.055-12.479zm-3.549 8.601c-2.905 2.106-9.331 3.633-9.088-2.267.595-5.091 6.263-4.182 7.304-3.983 1.355 1.407 1.733 4.031 1.784 6.25zm-39.572-7.558c-2.597-1.368-4.518-3.511-7.401-3.432-8.775.266-9.887 10.792-4.858 16.717 8.542 3.549 16.537-3.726 12.259-13.285zm-11.234 5.634c-.112-3.23 5.563-4.991 7.724-2.112 2.589 7.66-7.549 7.488-7.724 2.112z"/></g></svg>