<svg xmlns="http://www.w3.org/2000/svg" width="145.03" height="292.083" viewBox="0 0 145.03 292.083"><g fill="#BDB99B"><path d="M55.816 179.53c-4.556-13.438 3.441-25.404 16.221-26.133 6.18-.364 13.948 1.888 16.909 7.153 12.347 21.874-25.873 40.37-33.13 18.98zm.567 81.004c-.793-5.149.866-10.091 3.565-12.704 10.011-9.693 30.293-.777 25.973 14.273-3.655 12.709-26.858 15.686-29.538-1.569zM109.99 14.421c11.348-1.139 21.6 3.528 26.91 9.625 1.139 1.287 2.916 4.468 3.117 6.285.748 6.861-21.301 38.048-28.273 22.515 4.785-7.625 10.543-14.419 15.23-22.127-1.355-3.141-3.281-5.64-6.414-6.679-7.916 6.366-10.986 16.853-19.779 22.491-16.465-4.083 4.141-26.441 9.209-32.11zM89.719 38.914c-2.221 1.972-7.887 2.424-10.393.826-4.236-7.815 5.889-27.739-5.833-32.217-12.181 2.568-2.893 22.981-5.965 31.85-2.519 2.778-7.122 2.165-10.286 2.126-4.597-11.236-6.177-29.012.298-37.282 7.411-5.238 21.338-6.128 28.137.375 7.214 6.868 6.669 23.055 4.042 34.322zm-39.962 7.105c-1.969 1.934-5.359 2.676-8.885 3.319-4.244-3.365-6.98-23.593-14.902-22.998-5.615.414-4.525 6.115-2.422 10.654 2.631 5.67 9.597 10.637 11.139 16.759-1.646 3.236-4.702 5.278-8.629 6.57C10.201 52 2.997 15.788 29.088 16.29c13.71.251 15.624 17.657 20.669 29.729zm1.582 11.637c1.17.108.863-3.737-.857-2.545 14.785-12.019 33.745-7.879 49.18 1.965 4.303 2.743 7.963 5.849 11.115 8.265 3.133 2.402 15.762 9.368 15.584 15.102-.281 8.774-11.812 2.156-17.146-1.904-13.162-10.01-29.809-27.294-53.563-15.997-8.029 3.818-14.823 9.279-21.103 14.099-6.38 4.901-11.933 11.809-21.802 13.501-1.157-1.978-2.476-3.724-3.115-6.289C21.587 73.462 35.893 61.845 50.534 55.76c.764.029.636 1.129.805 1.896z"/><path d="M127.717 138.506c-8.939-6.912 17.529-18.588 1.076-27.539-19.029.009-19.021 23.36-26.746 33.506 12.26 16.489 10.074 43.064-1.398 56.324-6.783 7.838-17.771 15.995-27.625 22.462-10.664 6.985-22.782 14.414-26.272 23.008-8.229 20.246 10.817 37.142 29.473 33.604 14.988-2.866 23.891-21.948 14.098-36.42-4.467-6.598-13.84-4.345-16.182-14.398 8.811-5.168 17.741 2.545 22.106 6.737 22.412 21.509 3.244 52.376-20.389 55.874-20.278 2.992-42.34-10.246-41.217-33.322 1.598-33.043 31.218-39.56 51.563-58.355 12.279-11.346 18.596-31.223 7.268-48.295-8.58-6.271-22.104-9.206-33.149-5.855-10.211 3.08-18.504 17.993-17.312 28.83 1.83 16.594 15.389 20.671 27.01 27.262-8.774 10.902-21.63 1.977-28.602-6.219-11.964-14.101-9.985-41.254 2.461-51.177-4.168-12.634-11.404-21.663-17.577-31.937-11.446-5.574-19.874 7.628-11.152 15.921 2.521 2.469 7.569-1.167 9.249 1.225 2.028 5.193-1.691 9.993-5.668 10.909-11.215 2.545-22.743-15.419-17.369-29.337 2.166-5.621 11.59-11.765 20.006-11.398 4.977.203 10.313 3.826 12.914 6.159 5.982 5.37 6.298 13.68 13.447 21.153 6.614 6.9 27.112 12.585 40.395 6.588 10.586-4.783 13.387-19.566 19.521-25.736 5.916-5.974 22.607-11.153 30.971-5.083 13.315 9.653 4.045 36.897-10.9 35.509z"/><path d="M57.074 72.234c-7.287 3.993-14.999 16.826-11.908 31.014 3.632 16.65 16.006 23.4 33.637 20.201 6.352-1.161 16.516-7.381 19.801-13.999 13.164-26.448-14.875-51.811-41.53-37.216zm.299 36.58c-8.955-10.545-.42-28.545 13.312-29.821 8.528-.788 15.637 3.672 20.467 10.789 7.834 23.071-23.662 30.916-33.779 19.032z"/><path d="M67.955 85.747c10.858-1.374 17 2.787 16.233 15.046-2.742 3.379-6.656 7.141-11.174 7.426-11.69.714-16.237-17.389-5.059-22.472z"/></g></svg>