<svg xmlns="http://www.w3.org/2000/svg" width="155.531" height="290.271" viewBox="0 0 155.531 290.271"><g fill="#BDB99B"><path d="M126.821 94.187c1.129-6.375 13.445-2.883 18.744-5.583 2.156-4.274.592-11.683-1.009-16.092-5.634-2.645-15.471 4.091-19.157-1.002.798-9.758 18.38-7.782 25.967-7.501 5.142 10.754 3.195 18.77 4.165 31.314-5.334 2.394-25.078 5.694-28.71-1.136zm-6.702 92.212c3.942-1.205 6.825-1.082 10.239-.643 4.91-4.693 2.3-14.75 3.06-21.489-3.804-1.453-9.278-.966-14.72-.545.107-3.147-1.184-7.493.135-9.555 7.28 1.236 17.623-1.96 22.859 1.503.726 12.583 2.19 23.873.1 36.713-3.909 1.448-26.671 7.67-21.673-5.984zm24.935-141.088c-5.668 5.599-12.35 10.28-22.768 11.708-5.449-8.877 7.819-10.32 9.965-16.779-1.169-4.679-3.959-7.521-7.225-9.828-5.273.493-10.351 5.055-14.126 8.963-11.016-2.938 8.169-21.338 11.837-22.038 10.824-2.087 19.629 17.965 22.317 27.974zM56.765 2.125C69.644.339 93.425-3.159 98.55 6.37c-2.225 8.399 1.81 22.325-9.594 22.631-1.541-4.696 1.294-13.503-1.193-19.017-4.487-1.941-17.06-1.397-21.213 1.33.052 5.708 4.368 13.047 1.1 17.555-8.657 1.805-11.008-18.577-10.885-26.744zM33.77 15.573c6.587 5.155 15.476 11.575 16.694 20.249-7.695 4.479-10.68-6.348-15.867-7.084-5.269-.751-6.731 4.236-11.244 8.048 2.288 5.263 13.479 8.376 7.594 15.679-9.781-1.443-15.027-8.032-20.027-14.899 5.738-8.988 13.613-16.09 22.85-21.993zM9.708 158.808c8.564-.048 20.024-3.376 22.265 3.743.405 6.115-9.879 2.801-13.622 5.261-1.374 4.758-.048 11.937-1.14 16.96 4.493 3.351 10.105 1.408 16.276 1.917-.075 2.698 1.034 6.424-.229 8.092-6.113 1.097-11.271 1.113-21.211 1.332-.332-1.714-2.359-1.507-3.109-2.744-1.669-11.666-3.107-25.16.77-34.561zM0 74.234c3.223-9.096 17.42-7.455 28.892-7.688 1.188 2.373 1.479 6.987.594 9.511-4.95-.589-12.234-2.56-17.599.368-1.974 3.348-1.338 10.875 1.559 13.121 5.563-.044 12.366-1.512 16.867-.326 1.773 2.604 1.144 3.276 1.188 7.272-8.292 2.087-21.087 3.952-28.572 1.054C-.837 90.176 1.964 82.472 0 74.234z"/><path d="M122.574 120.153c11.98-.219 33.406-1.075 20.571-11.568-13.263.935-42.975 3.653-54.951 1.976 15.566-5.177 26.512-15.065 27.47-30.361 2.616-41.572-51.323-47.187-69.721-22.801-10.284 13.619-4.67 39.377 5.129 46.678 5.303 3.932 13.512 2.417 18.835 7.63-21.328 1.785-45.808.731-62.996 2.483-.738 2.574-1.671 4.96-.913 8.869 10.815 1.359 24.036.104 36.71-.1 9.007-.157 20.645-1.927 25.283 5.023-1.023.921-.964 2.835-1.964 3.796-17.028.394-35.444 1.447-57.924 1.427.018 3.549-1.555 4.157-.272 7.362 16.235 4.531 44.124-2.543 58.836 1.449-7.309 3.134-13.303 2.223-18.648 7.046-16.121 14.537-11.457 48.919 6.595 58.335-12.555.521-27.354-2.875-37.216 3.801.341 2.485 2.07 3.398 1.877 6.492 13.197.966 29.08-1.111 40.506 1.866 1.479 1.804.825 6.353-1.004 7.403-12.109.454-24.585-1.371-34.424 1.424-1.777 2.255 1.148 4.151.695 7.303 11.215.603 27.84-.889 34.156 2.264l.322 5.121c-6.057 1.012-14.47-.562-17.701 2.578 5.442 15.527 16.607 31.186 26.178 44.623 1.173-21.024.885-39.975 1.257-61.033.129-6.717-1.159-14.1 2.436-19.241 16.39-2.783 12.253 16.445 10.827 32.367-1.32 14.748-2.773 34.951-.731 47.043 5.603-4.351 9.282-12.945 13.434-19.938 4.355-7.35 10.658-14.743 10.964-24.187-3.787-2.495-11.497-.541-15.591-2.694-1.292-1.141-.856-4.271-1.145-6.536 7.722-3.749 24.229-2.008 32.092-3.482.658-2.203 1.837-3.907 1.004-7.404-8.692-2.986-22.545-.117-33.782-.085-.008-3.021-1.152-7.005.959-8.138 11.799-2.107 30.893 1.447 41.601-4.077-.564-2.821 1.075-3.658.318-6.629-9.873-1.628-25.36-.105-33.83-.817 8.535-6.981 15.239-15.582 15.08-28.851-.24-18.14-12.374-31.719-26.478-35.79 10.758-3.817 34.235.117 47.591-2.251 3.854-.688 10.312-2.401 9.05-7.908-6.185-3.307-15.485-2.66-23.634-2.191-12.36.692-27.629 5.384-33.285-3.789 5.753-4.542 21.196-4.224 36.434-4.488zm-27.42 42.842c5.944 10.889 3.368 28.021-7.445 33.514-18.485 9.38-34.533-2.873-35.253-23.489-.188-5.599 2.397-12.533 7.084-15.867 9.115-6.528 29.439-5.457 35.614 5.842zM62.953 82.769C60.07 71.956 65.957 61.06 78.446 60.503c12.714-.572 20.402 12.1 17.605 23.128-4.189 16.46-28.801 15.269-33.098-.862z"/><path d="M68.55 183.756c-10.726-7.445-2.322-24.353 10.511-19.752 2.4.852 6.191 6.629 6.358 7.679 1.252 8.246-6.086 14.233-16.869 12.073z"/></g></svg>