<svg xmlns="http://www.w3.org/2000/svg" xmlns:xlink="http://www.w3.org/1999/xlink" width="148" height="297" viewBox="0 0 148 297"><defs><path id="a" d="M0 0h148v297H0z"/></defs><clipPath id="b"><use xlink:href="#a" overflow="visible"/></clipPath><g clip-path="url(#b)" fill="#BDB99B"><path d="M148.304 0C66.398 0 0 66.398 0 148.304s66.398 148.304 148.304 148.304 148.304-66.397 148.304-148.304C296.607 66.398 230.21 0 148.304 0zm117.292 195.397c-8.837 1.988-11.16-7-18.037-8.746-1.26 4.1-4.768 8.291-4.373 12.025.684 6.665 12.799 11.205 10.385 19.677-7.682 3.157-10.188-7.455-15.304-10.386-3.689 2.476-7.333 6.423-7.105 10.386.38 6.983 13.71 13.36 8.745 21.862-8.336.957-10.855-8.41-16.396-12.023-16.99 5.617 9.23 17.368 1.092 26.781-9.033-.684-7.742-14.621-14.757-15.851-3.812-.668-9.14 3.158-9.839 5.466-2.217 7.287 8.958 13.285 4.92 20.77-9.443-.592-10.75-9.291-15.852-14.211-3.658.168-6.527 1.139-8.744 2.733-.365 5.557 6.969 18.568-.547 19.677-8.229 1.215-4.844-14.803-12.571-16.943-2.718-.76-6.544.697-9.292 2.732.365 8.107 4.068 24.626-4.919 22.956-6.589-1.229-3.522-14.515-3.826-22.409-2.657-1.185-6.483-1.185-10.385-1.094-2.611 5.997-.987 18.994-7.105 19.677-7.531.819-3.264-13.665-3.28-19.677-1.867-1.959-4.707-2.961-8.198-3.279-4.965 4.889-.44 19.252-10.385 19.13-3.477-3.553-3.204-7.622-1.64-13.664.592-2.323 2.763-5.36 2.187-7.652-.607-2.323-5.102-5.374-8.745-4.372-4.524 1.215-5.496 18.811-12.025 17.49-8.426-1.701 2.793-16.154 2.187-21.316-.532-4.418-2.566-3.918-6.559-6.559-7.576 3.37-8.745 16.018-19.677 14.211-3.158-10.446 19.418-20.74 3.279-28.422-6.604 1.153-11.205 14.529-20.223 12.023-.865-.242-2.885-1.852-3.279-3.279-2.642-9.459 13.573-11.948 15.835-19.13-2.247-2.899-3.067-7.12-6.544-7.651-6.149-.957-10.036 10.598-16.397 7.105-3.902-12.223 21.574-14.516 7.105-26.236-6.316 1.609-16.306 9.763-21.863 2.187 4.282-9.793 13.042-8.653 19.677-15.304.638-4.1-1.199-5.739-1.093-9.292-5.8-.972-22.44 3.704-22.957-3.28-.455-5.936 13.331-7.378 20.224-8.744 1.776-2.657 1.958-6.62.546-9.839-7.652-1.488-22.41 2.536-22.41-5.465 0-7.333 16.094-6.696 23.503-7.652.638-1.229 3.431-4.722 2.733-7.105-1.2-4.069-12.45-4.114-15.851-7.105-3.781-3.325-5.041-11.281 2.186-12.571 4.418-.79 9.763 3.568 16.397 3.826 3.279-1.093 3.401-5.344 4.919-8.199-4.661-6.984-23.001-7.865-16.944-20.223 8.578-4.023 14.5 10.643 21.316 9.838 2.9-.349 5.42-4.16 5.451-6.559.106-6.999-13.148-9.884-12.009-18.037 7.333-7.5 15.774 3.568 20.77 7.105 3.249-1.108 5.314-3.431 7.652-5.465-1.078-8.214-8.305-10.279-9.292-18.583 8.077-.714 11.615 7.622 16.397 12.024 14.18-6.438-7.318-15.668-.547-24.049 4.858.486 8.472 7.212 9.838 7.652.197 8.138 12.784 7.986 14.758 1.093 1.776-6.271-6.24-14.833-2.187-19.677 10.704-2.08 11.888 9.915 14.757 17.491 14.773 3.294 8.275-14.682 15.851-18.583 4.494 2.778 4.843 9.717 6.559 15.304 4.494.213 7.471.972 9.838-1.64.881-4.752-.151-11.448 3.826-13.118 6.711.926 3.584 11.706 6.013 16.944 6.696 2.976 7.728-8.381 12.571-9.292 7.713-1.458 6.528 6.088 4.919 13.118 11.751 10.263 14.09-14.287 25.689-9.292-.471 7.91-5.238 11.539-7.105 18.037 1.776 2.034 3.962 3.674 7.105 4.373 6.301-4.312 10.278-13.71 21.316-11.478 4.812 10.886-9.231 11.736-12.024 18.583 2.02 3.067 5.055 5.132 8.198 7.105 3.431.425 25.978-9.747 24.05 0-.851 4.236-14.667 5.496-16.398 9.838.957 4.145 3.28 6.908 6.014 9.292 6.695-2.596 20.102-9.671 26.234-2.733-2.459 8.305-13.057 8.442-20.77 11.479.318 4.767 2.262 7.925 4.373 10.931 7.272-1.321 16.762-5.542 25.143-2.186-.426 10.871-13.209 9.383-20.77 13.118.151 3.856.182 7.819 1.639 10.385 7.334-.456 23.807-2.748 22.957 4.373-.744 6.149-16.094 3.492-22.41 4.373-2.414 3.173.061 9.383 0 12.025 8.685 4.418 22.668 3.568 23.503 15.851-8.335 4.798-14.804-4.813-22.956-5.466-2.869 2.05-1.442 8.396-2.732 12.025 5.344 5.796 14.575 10.487 13.665 20.766z"/><path d="M247.012 145.112c-.35-5.359-.304-11.615-1.094-16.397-2.019-11.994-11.705-31.959-16.396-39.9-8.882-15.031-28.877-31.079-48.099-37.167-9.474-3.006-24.11-6.027-36.074-5.466-11.979.562-24.019 3.401-32.248 6.559-16.063 6.149-30.912 15.577-40.447 26.236-3.659 4.069-6.179 10.461-8.745 14.758-2.885 4.797-6.528 10.036-8.745 15.304-10.416 24.657-8.988 56.723 0 78.707 8.229 20.162 24.687 40.416 41.54 50.285 27.739 16.245 63.847 15.104 91.825 4.373 22.972-8.811 36.165-27.542 41.54-36.621 10.626-18.022 18.734-32.78 16.943-60.671zm-12.572 30.609c-1.548 5.663-8.307 17.49-8.307 17.49-9.134 20.382-45.64 62.958-111.94 41.54-7.253-2.343-15.456-6.711-21.316-10.932-4.707-3.387-9.854-10.416-14.211-15.852-4.722-5.859-8.867-12.662-11.478-18.036-11.584-23.821-13.087-60.381-.546-83.626 1.867-3.477 5.238-6.878 8.184-10.932 5.572-7.622 11.022-16.276 18.599-21.863 13.528-10.005 31.261-14.818 48.645-16.397 7.47-.683 16.396-1.06 24.05.546 25.88 5.434 41.38 15.934 51.376 31.703 13.303 20.985 26.039 52.972 16.944 86.359z"/><path d="M220.776 149.485c-1.048-2.611-1.929-6.635-1.64-9.292.744-6.999 11.129-14.621 9.291-22.409-1.761-7.379-15.364-5.663-20.223-9.838-2.643-2.262-6.468-9.945-7.105-14.758-.652-4.828 1.533-10.628 0-14.757-4.889-13.148-19.904 3.841-27.329 3.826-13.71-.031-9.763-21.408-21.862-22.41-9.748-.805-13.027 14.939-18.584 17.49-8.032 3.674-21.499-2.536-30.062-1.64-2.718.273-8.442 2.414-9.838 6.012-2.202 5.633.759 11.266-.547 16.397-.668 2.596-3.628 9.231-6.559 12.024-7.88 7.47-25.173 3.689-21.863 19.13 1.519 7.166 13.665 9.914 15.304 17.49 3.279 15.35-24.338 25.825-6.559 44.272 10.4 2.004 19.904 2.217 22.409 11.479 2.095 7.773-4.797 20.192 4.373 22.409 7.333 1.776 16.367-4.448 24.049-5.466 9.611-1.291 15.699 3.462 20.77 8.746 2.824 2.945 7.014 10.232 10.932 10.385 8.957.334 9.686-17.582 14.211-22.957 2.064-2.475 8.107-5.951 13.117-6.012 7.592-.092 13.012 7.697 20.223 5.465 8.928-2.763.289-25.006 4.92-31.701 4.176-6.058 23.199-2.414 25.143-12.024 1.928-9.639-9.837-15.044-12.571-21.861zm-28.968-60.123c-.258 1.715 1.458 1.442 1.64 2.733-.713 4.646-7.637 3.522-8.198-.547-.123-3.037 3.795-2.034 6.558-2.186zm-36.074-10.385c-1.914 1.746-6.848 1.367-8.199-.546-1.776-8.033 9.489-4.996 8.199.546zm-52.471 8.198c1.943-2.581 7.151-1.731 8.198 1.093-.288 3.355-2.414 4.889-6.559 4.373-.714-1.67-2.186-2.551-1.639-5.466zm-26.236 42.087c-.364-2.004.364-2.915 1.093-3.826 1.898.82 4.251 1.199 3.826 4.373-.486.243-.987.471-1.093 1.093-1.686-.152-2.459-1.185-3.826-1.64zm7.652 52.471c-4.722.516-6.908-1.473-6.559-6.013 2.156-2.08 5.708-.684 7.105 1.093-.121 1.702.365 4.008-.546 4.92zm19.676 33.34c-1.032-7.939 8.806-6.861 8.746-.546-1.093 3.113-7.288 3.72-8.746.546zm49.192 9.839c-6.331-3.993 2.931-9.944 4.373-4.372.562 2.186-1.123 4.402-4.373 4.372zm40.994-18.583c-1.822-1.109-4.1-1.746-3.826-4.92 2.217-2.08 6.406-.926 7.09 1.641-.016 2.17-2.096 2.262-3.264 3.279zm13.664-49.738c-1.32 14.302-5.678 20.314-13.664 30.061-8.7 10.598-21.014 21.833-36.074 25.143-10.324 2.263-23.776.699-32.794-2.186-9.975-3.188-17.369-9.975-24.049-17.49-13.634-15.335-23.442-47.279-10.385-72.148 9.019-17.187 26.357-27.981 48.099-32.248 43.451-2.339 73.103 22.742 68.867 68.868zm3.264-36.621c5.359-2.277 8.123 3.766 6.574 7.105-.607.82-5.056.729-6.574-.546-.744-1.731-.744-4.828 0-6.559zm3.842 51.378c-7.805-.774-.865-14.06 4.919-5.466-.517 3.021-2.4 5.709-4.919 5.466z"/><path d="M139.336 109.585c-14.196 2.338-23.654 13.71-26.782 20.223-3.644 7.561-4.858 18.568-3.826 25.689 1.017 7.105 6.498 17.324 12.024 22.41 15.183 13.968 49.07 11.918 59.577-9.839 15.077-31.276-9.55-63.675-40.993-58.483zm11.478 11.478c4.586-.638 9.611-.713 14.211 0-4.965 3.507-14.135 5.39-22.41 6.559-5.966.835-13.452 2.475-18.037 0 6.727-3.766 16.58-5.223 26.236-6.559zm18.038 9.838c1.108.152 1.442 1.093 2.187 1.64-1.534 3.568-6.665 3.219-10.386 3.826-10.536 1.7-26.144 5.708-36.62 2.733 10.597-7.819 31.853-3.978 44.819-8.199zm-23.503 15.305c7.606-.987 16.823-3.841 25.128 0-13.422 5.071-27.754 8.108-44.804 5.465 3.339-5.632 12.54-4.555 19.676-5.465zm-4.919 29.515c-3.097.136-7.227 2.308-8.745-1.093 1.047-2.9 5.299-3.416 8.199-3.826 9.458-1.367 22.136-2.385 30.593 0-4.48 6.361-19.465 4.432-30.047 4.919zm-13.118-12.025c11.979-5.314 33.75-7.744 48.098-5.467-11.295 5.862-32.946 7.122-48.098 5.467z"/><path d="M184.702 110.131c-9.063-9.595-31.292-17.505-48.645-15.851-3.492 1.397-7.455 1.883-10.385 3.279-19.495 9.231-36.772 32.825-31.155 61.763 1.366 7.061 5.48 16.777 9.838 22.956 2.916 4.13 8.882 9.854 13.665 13.118 19.418 13.238 49.192 10.673 66.121-6.559 4.51-4.586 10.248-11.889 12.586-18.037 8.016-21.209.591-47.293-12.025-60.669zm1.093 57.937c-1.791 4.464-5.754 7.759-9.838 11.478-6.924 6.286-10.962 11.297-21.316 13.118-20.269 3.568-40.553-7.956-48.099-26.782-9.003-22.455 5.102-50.983 22.941-57.937 3.477-1.352 7.637-1.67 12.04-2.187 13.543-1.594 30.304 4.813 37.713 14.211 7.683 9.748 13.118 31.672 6.559 48.099z"/></g></svg>