<svg xmlns="http://www.w3.org/2000/svg" width="242.13" height="20.308" viewBox="0 0 242.13 20.308"><path d="M239.252 2.66c-1.092-1.02-3.996-2.305-5.209-2.346-15.715-.635-10.012 23.939 4.025 16.278 7.506-5.166 2.577-12.623 1.184-13.932zm-7.679 11.086c-3.105-3.439-2.146-4.593-1.949-6.984 1.181-3.744 6.404-1.029 6.404-1.029 3.525 4.06-1.836 9.665-4.455 8.013zM14.645 4.894c-1.091-1.02-3.995-2.305-5.209-2.346-15.715-.635-10.012 23.939 4.025 16.278 7.505-5.167 2.577-12.624 1.184-13.932zm-7.68 11.085C3.86 12.54 4.819 11.387 5.017 8.995c1.18-3.744 6.404-1.029 6.404-1.029 3.524 4.06-1.837 9.666-4.456 8.013zM190.088.038c-2.279.185-3.342.749-3.342.749-4.082 2.83-6.34 6.831-3.957 13.765 5.383 5.519 17.137 2.282 16.695-5.682-.292-5.17-3.583-9.312-9.396-8.832zm5.672 9.666c-1.314 4.027-6.717 4.416-9.375 1.709-.531-4.165 1.264-6.857 6.104-7.611 1.504 1.329 2.883 2.835 3.271 5.902zm-46.59-7.55c-6.037-2.979-14.674-2.966-17.578 3.542.646 10.074 6.854 13.892 14.156 10.89 6.036-2.479 6.335-7.989 3.422-14.432zm-11.904 9.697c-1.324-4.465.609-6.86 5.371-7.449 7.625 3.173 1.244 12.75-5.371 7.449zm-32.703-8.305c-3.854-1.937-9.435-3.352-15.173.253-3.578 6.208-.178 11.642.876 12.7 2.918 2.872 9.021 1.627 14.352-.475 1.019-3.083 2.095-8.039-.055-12.478zm-3.549 8.601c-2.906 2.106-9.332 3.633-9.089-2.267.595-5.091 6.263-4.182 7.304-3.983 1.356 1.407 1.734 4.032 1.785 6.25zM61.442 4.589c-2.597-1.367-4.518-3.511-7.401-3.432-8.775.266-9.887 10.793-4.858 16.718 8.542 3.548 16.537-3.728 12.259-13.286zm-11.234 5.634c-.112-3.23 5.563-4.991 7.724-2.112 2.589 7.66-7.549 7.489-7.724 2.112z" fill="#BDB99B"/></svg>